PathFileType	4	(X/Y/Z)	pose_F01_0-92.trc
DataRate	CameraRate	NumFrames	NumMarkers	Units	OrigDataRate	OrigDataStartFrame	OrigNumFrames
30	30	6	21	m	30	0	92
Frame#	Time	CHip			RHip			RKnee			RAnkle			RBigToe			RSmallToe			RHeel			LHip			LKnee			LAnkle			LBigToe			LSmallToe			LHeel			Neck			Nose			RShoulder			RElbow			RWrist			LShoulder			LElbow			LWrist			
		X1	Y1	Z1	X2	Y2	Z2	X3	Y3	Z3	X4	Y4	Z4	X5	Y5	Z5	X6	Y6	Z6	X7	Y7	Z7	X8	Y8	Z8	X9	Y9	Z9	X10	Y10	Z10	X11	Y11	Z11	X12	Y12	Z12	X13	Y13	Z13	X14	Y14	Z14	X15	Y15	Z15	X16	Y16	Z16	X17	Y17	Z17	X18	Y18	Z18	X19	Y19	Z19	X20	Y20	Z20	X21	Y21	Z21	
0	0.0	-0.1905410036041913	1.8330905999223936	-0.5212363868978649	-0.20431335606200363	1.8312387983250316	-0.4657151323834513	-0.22236704918623074	1.7185738626221017	-0.4501412719563658													-0.17480652226084442	1.835613672894922	-0.5819410571921892	-0.24293848647243163	1.7066274937574193	-0.5949339082055827	-0.22993778406864002	1.5400352031156688	-0.5880180059675986	-0.27301467156932785	1.4989559505789476	-0.6131756356213959	-0.25865647003356124	1.5076851013958221	-0.6281211529915793	-0.2195549629784564	1.529324024826064	-0.579827094537091	-0.24244371037357518	1.989458814098797	-0.5529744273507594	-0.30500453926026944	2.026806259770527	-0.5847876397747772	-0.255023813823981	1.9852529549059101	-0.47141518452825776	-0.27513297015799487	1.89872180022331	-0.45715368324632416	-1.5110432847355268	1.8607080143790262	0.710216741999042	-0.22773036227874793	1.990227508515213	-0.6335788890811916	-1.339322257609119	1.869398977422449	0.4800327135430342	-1.3190627304073201	1.8234762049210032	0.4228472746554631
1	0.03333333333333333	-0.1905410036041913	1.8330905999223936	-0.5212363868978649	-0.20431335606200363	1.8312387983250316	-0.4657151323834513	-0.22236704918623074	1.7185738626221017	-0.4501412719563658													-0.17480652226084442	1.835613672894922	-0.5819410571921892	-0.24293848647243163	1.7066274937574193	-0.5949339082055827	-0.22993778406864002	1.5400352031156688	-0.5880180059675986	-0.27301467156932785	1.4989559505789476	-0.6131756356213959	-0.25865647003356124	1.5076851013958221	-0.6281211529915793	-0.2195549629784564	1.529324024826064	-0.579827094537091	-0.24244371037357518	1.989458814098797	-0.5529744273507594	-0.30500453926026944	2.026806259770527	-0.5847876397747772	-0.255023813823981	1.9852529549059101	-0.47141518452825776	-0.27513297015799487	1.89872180022331	-0.45715368324632416	-1.5110432847355268	1.8607080143790262	0.710216741999042	-0.22773036227874793	1.990227508515213	-0.6335788890811916	-1.343025257128305	1.8692645324889192	0.48840644264013344	-1.3071324464869587	1.8235392009066915	0.4085620503514714
2	0.06666666666666667	-0.1905410036041913	1.8330905999223936	-0.5212363868978649	-0.20431335606200363	1.8312387983250316	-0.4657151323834513	-0.22236704918623074	1.7185738626221017	-0.4501412719563658													-0.17480652226084442	1.835613672894922	-0.5819410571921892	-0.24293848647243163	1.7066274937574193	-0.5949339082055827	-0.22993778406864002	1.5400352031156688	-0.5880180059675986	-0.27301467156932785	1.4989559505789476	-0.6131756356213959	-0.25865647003356124	1.5076851013958221	-0.6281211529915793	-0.2195549629784564	1.529324024826064	-0.579827094537091	-0.24244371037357518	1.989458814098797	-0.5529744273507594	-0.30500453926026944	2.026806259770527	-0.5847876397747772	-0.255023813823981	1.9852529549059101	-0.47141518452825776	-0.27513297015799487	1.89872180022331	-0.45715368324632416	-1.5110432847355268	1.8607080143790262	0.710216741999042	-0.22773036227874793	1.990227508515213	-0.6335788890811916	-1.346728256647491	1.8691300875553893	0.4967801717372327	-1.2952021625665973	1.82360219689238	0.3942768260474797
3	0.1	-0.1905410036041913	1.8330905999223936	-0.5212363868978649	-0.20431335606200363	1.8312387983250316	-0.4657151323834513	-0.22236704918623074	1.7185738626221017	-0.4501412719563658													-0.17480652226084442	1.835613672894922	-0.5819410571921892	-0.24293848647243163	1.7066274937574193	-0.5949339082055827	-0.22993778406864002	1.5400352031156688	-0.5880180059675986	-0.27301467156932785	1.4989559505789476	-0.6131756356213959	-0.25865647003356124	1.5076851013958221	-0.6281211529915793	-0.2195549629784564	1.529324024826064	-0.579827094537091	-0.24244371037357518	1.989458814098797	-0.5529744273507594	-0.30500453926026944	2.026806259770527	-0.5847876397747772	-0.255023813823981	1.9852529549059101	-0.47141518452825776	-0.27513297015799487	1.89872180022331	-0.45715368324632416	-1.5110432847355268	1.8607080143790262	0.710216741999042	-0.22773036227874793	1.990227508515213	-0.6335788890811916	-1.3427584567400186	1.87003023062954	0.4876620740926167	-1.2832718786462358	1.8236651928780683	0.37999160174348806
4	0.13333333333333333	-0.1905410036041913	1.8330905999223936	-0.5212363868978649	-0.20431335606200363	1.8312387983250316	-0.4657151323834513	-0.22236704918623074	1.7185738626221017	-0.4501412719563658													-0.17480652226084442	1.835613672894922	-0.5819410571921892	-0.24293848647243163	1.7066274937574193	-0.5949339082055827	-0.22993778406864002	1.5400352031156688	-0.5880180059675986	-0.27301467156932785	1.4989559505789476	-0.6131756356213959	-0.25865647003356124	1.5076851013958221	-0.6281211529915793	-0.2195549629784564	1.529324024826064	-0.579827094537091	-0.24244371037357518	1.989458814098797	-0.5529744273507594	-0.30500453926026944	2.026806259770527	-0.5847876397747772	-0.255023813823981	1.9852529549059101	-0.47141518452825776	-0.27513297015799487	1.89872180022331	-0.45715368324632416	-1.5110432847355268	1.8607080143790262	0.710216741999042	-0.22773036227874793	1.990227508515213	-0.6335788890811916	-1.3187787089819973	1.8687762633242646	0.4465147446970356	-1.2713415947258742	1.8237281888637569	0.3657063774394964
5	0.16666666666666666	-0.1905410036041913	1.8330905999223936	-0.5212363868978649	-0.20431335606200363	1.8312387983250316	-0.4657151323834513	-0.22236704918623074	1.7185738626221017	-0.4501412719563658													-0.17480652226084442	1.835613672894922	-0.5819410571921892	-0.24293848647243163	1.7066274937574193	-0.5949339082055827	-0.22993778406864002	1.5400352031156688	-0.5880180059675986	-0.27301467156932785	1.4989559505789476	-0.6131756356213959	-0.25865647003356124	1.5076851013958221	-0.6281211529915793	-0.2195549629784564	1.529324024826064	-0.579827094537091	-0.24244371037357518	1.989458814098797	-0.5529744273507594	-0.30500453926026944	2.026806259770527	-0.5847876397747772	-0.255023813823981	1.9852529549059101	-0.47141518452825776	-0.27513297015799487	1.89872180022331	-0.45715368324632416	-1.5110432847355268	1.8607080143790262	0.710216741999042	-0.22773036227874793	1.990227508515213	-0.6335788890811916	-1.3428659956499882	1.8693193227464413	0.4881061120826728	-1.2594113108055127	1.8237911848494452	0.3514211531355047
